<svg width="24" height="21" viewBox="0 0 24 21" fill="none" xmlns="http://www.w3.org/2000/svg">
<path d="M14.7738 14.1345C15.0414 14.1345 15.2954 14.253 15.4664 14.4561L18.9164 18.5549C20.0268 19.8743 22.2 19.0984 22.2 17.3842V7.07074C22.1996 5.66686 21.6341 4.32099 20.6285 3.32829C19.6859 2.39779 18.4279 1.84917 17.1023 1.78388L16.8363 1.77694H7.1625C5.74023 1.77733 4.37592 2.33537 3.37031 3.32829C2.36481 4.32122 1.80009 5.6679 1.8 7.0719V16.8636C1.80034 18.5176 3.84599 19.3245 5.00156 18.1246L8.57344 14.4122L8.64023 14.3486C8.80252 14.2114 9.0105 14.1345 9.22617 14.1345H14.7738ZM6.46406 10.9613V9.48048H4.96406C4.46716 9.4803 4.06406 9.08259 4.06406 8.59201C4.06411 8.10147 4.46719 7.70372 4.96406 7.70354H6.46406V6.22276C6.46411 5.73222 6.86719 5.33447 7.36406 5.33429C7.86109 5.33429 8.26402 5.73211 8.26406 6.22276V7.70354H9.76406C10.2611 7.70354 10.664 8.10136 10.6641 8.59201C10.6641 9.0827 10.2611 9.48048 9.76406 9.48048H8.26406V10.9613C8.26406 11.452 7.86112 11.8497 7.36406 11.8497C6.86716 11.8496 6.46406 11.4518 6.46406 10.9613ZM24 17.3842C24 20.7614 19.7197 22.289 17.5324 19.6898L14.352 15.9115H9.61172L6.30703 19.3474C4.03309 21.7097 0.000343596 20.1249 0 16.8636V7.0719C8.69342e-05 5.19663 0.754583 3.39811 2.09766 2.07194C3.44084 0.74571 5.26277 0.000392578 7.1625 0H16.8363L17.1914 0.0092549C18.9616 0.0962781 20.6419 0.828755 21.9012 2.07194C23.2443 3.39788 23.9996 5.19559 24 7.07074V17.3842Z" fill="#242424"/>
<path d="M15.1934 8.59201C15.8561 8.59201 16.3934 8.06164 16.3934 7.40739C16.3934 6.75314 15.8561 6.22276 15.1934 6.22276C14.5306 6.22276 13.9934 6.75314 13.9934 7.40739C13.9934 8.06164 14.5306 8.59201 15.1934 8.59201Z" fill="#242424"/>
<path d="M17.8336 11.1984C18.4963 11.1984 19.0336 10.668 19.0336 10.0138C19.0336 9.35955 18.4963 8.82917 17.8336 8.82917C17.1709 8.82917 16.6336 9.35955 16.6336 10.0138C16.6336 10.668 17.1709 11.1984 17.8336 11.1984Z" fill="#242424"/>
</svg>
