<svg width="17" height="16" viewBox="0 0 17 16" fill="none" xmlns="http://www.w3.org/2000/svg">
<path d="M11 8.49813C11 9.87849 9.88071 10.9975 8.5 10.9975C7.11929 10.9975 6 9.87849 6 8.49813C6 7.11776 7.11929 5.99875 8.5 5.99875C9.88071 5.99875 11 7.11776 11 8.49813Z" stroke="#242424" stroke-width="1.5" stroke-linecap="round" stroke-linejoin="round"/>
<path d="M5.04358 2.11922L5.05141 2.09405C5.25449 1.44088 5.82694 1 6.47194 1L10.528 1C11.173 1 11.7455 1.44088 11.9486 2.09405L11.9564 2.11922C12.0579 2.44581 12.3442 2.66625 12.6667 2.66625L13.5 2.66625C14.8807 2.66625 16 3.78526 16 5.16563V11.8306C16 13.211 14.8807 14.33 13.5 14.33H3.5C2.11929 14.33 1 13.211 1 11.8306L1 5.16563C1 3.78526 2.11929 2.66625 3.5 2.66625L4.33332 2.66625C4.65582 2.66625 4.94204 2.44581 5.04358 2.11922Z" stroke="#242424" stroke-width="1.5" stroke-linecap="round" stroke-linejoin="round"/>
</svg>
