<svg width="22" height="18" viewBox="0 0 22 18" fill="none" xmlns="http://www.w3.org/2000/svg">
<path d="M14.3333 1V3.28571M14.3333 7.85714V10.1429M14.3333 14.7143V17M3.22222 1H18.7778C19.3671 1 19.9324 1.24082 20.3491 1.66947C20.7659 2.09812 21 2.67951 21 3.28571V6.71429C20.4106 6.71429 19.8454 6.9551 19.4287 7.38376C19.0119 7.81241 18.7778 8.39379 18.7778 9C18.7778 9.60621 19.0119 10.1876 19.4287 10.6162C19.8454 11.0449 20.4106 11.2857 21 11.2857V14.7143C21 15.3205 20.7659 15.9019 20.3491 16.3305C19.9324 16.7592 19.3671 17 18.7778 17H3.22222C2.63285 17 2.06762 16.7592 1.65087 16.3305C1.23413 15.9019 1 15.3205 1 14.7143V11.2857C1.58937 11.2857 2.1546 11.0449 2.57135 10.6162C2.9881 10.1876 3.22222 9.60621 3.22222 9C3.22222 8.39379 2.9881 7.81241 2.57135 7.38376C2.1546 6.9551 1.58937 6.71429 1 6.71429V3.28571C1 2.67951 1.23413 2.09812 1.65087 1.66947C2.06762 1.24082 2.63285 1 3.22222 1Z" stroke="#242424" stroke-width="1.5" stroke-linecap="round" stroke-linejoin="round"/>
</svg>
