<svg width="32" height="32" viewBox="0 0 32 32" fill="none" xmlns="http://www.w3.org/2000/svg">
<g clip-path="url(#clip0_3087_5721)">
<path d="M31 21L25.8567 15.8567C25.2316 15.2318 24.3839 14.8807 23.5 14.8807C22.6161 14.8807 21.7684 15.2318 21.1433 15.8567L6 31M4.33333 1H27.6667C29.5076 1 31 2.49238 31 4.33333V27.6667C31 29.5076 29.5076 31 27.6667 31H4.33333C2.49238 31 1 29.5076 1 27.6667V4.33333C1 2.49238 2.49238 1 4.33333 1ZM14.3333 11C14.3333 12.8409 12.8409 14.3333 11 14.3333C9.15905 14.3333 7.66667 12.8409 7.66667 11C7.66667 9.15905 9.15905 7.66667 11 7.66667C12.8409 7.66667 14.3333 9.15905 14.3333 11Z" stroke="#C8C8C8" stroke-width="2" stroke-linecap="round" stroke-linejoin="round"/>
</g>
<defs>
<clipPath id="clip0_3087_5721">
<rect width="32" height="32" fill="white"/>
</clipPath>
</defs>
</svg>
