<svg width="20" height="22" viewBox="0 0 20 22" fill="none" xmlns="http://www.w3.org/2000/svg">
<path d="M14 9V5C14 3.93913 13.5786 2.92172 12.8284 2.17157C12.0783 1.42143 11.0609 1 10 1C8.93913 1 7.92172 1.42143 7.17157 2.17157C6.42143 2.92172 6 3.93913 6 5V9M1 6V17C1 18.0609 1.42143 19.0783 2.17157 19.8284C2.92172 20.5786 3.93913 21 5 21H15C16.0609 21 17.0783 20.5786 17.8284 19.8284C18.5786 19.0783 19 18.0609 19 17V6H1Z" stroke="#242424" stroke-width="1.5" stroke-linecap="round" stroke-linejoin="round"/>
</svg>
