<svg width="24" height="24" viewBox="0 0 24 24" fill="none" xmlns="http://www.w3.org/2000/svg">
<path d="M11.2451 14.248C9.58892 14.2483 8.24512 15.5918 8.24512 17.248V23.248H5.24512C4.00498 23.2478 2.99533 22.2382 2.99512 20.998V11.998H1.49512C1.18879 11.9979 0.915346 11.81 0.801758 11.5215C0.690756 11.2394 0.762628 10.9127 0.991211 10.6982L0.990234 10.6973L11.4883 0.950195L11.4902 0.949219C11.7374 0.71825 12.1092 0.686263 12.3926 0.862305L12.5078 0.951172L23.0068 10.7002L23.0078 10.7012C23.2312 10.9085 23.3062 11.2372 23.1943 11.5215C23.0817 11.8077 22.8044 11.998 22.4951 11.998H20.9951V20.998C20.9949 22.2383 19.9855 23.248 18.7451 23.248H15.7451V17.248C15.7451 15.5916 14.4015 14.248 12.7451 14.248H11.2451Z" stroke="#242424" stroke-width="1.5"/>
</svg>
