<svg width="23" height="21" viewBox="0 0 23 21" fill="none" xmlns="http://www.w3.org/2000/svg">
<path d="M9.28921 16.4729H3.21045C2.62421 16.4729 2.06197 16.24 1.64743 15.8255C1.23289 15.4109 1 14.8487 1 14.2625V3.21041C1 2.62418 1.23289 2.06195 1.64743 1.64742C2.06197 1.23288 2.62421 1 3.21045 1H18.6836C19.2699 1 19.8321 1.23288 20.2467 1.64742C20.6612 2.06195 20.8941 2.62418 20.8941 3.21041V7.63124" stroke="#242424" stroke-width="1.5" stroke-linecap="round" stroke-linejoin="round"/>
<path d="M1 3.21094L10.947 9.84218L14.2439 7.64392L20.8941 3.21094M17.5784 19.789L21.2809 16.1595C21.508 15.9392 21.6886 15.6756 21.8121 15.3844C21.9356 15.0931 21.9995 14.78 22 14.4637C22.0005 14.1473 21.9376 13.834 21.8151 13.5423C21.6925 13.2507 21.5128 12.9865 21.2864 12.7654C20.8249 12.3133 20.2048 12.0595 19.5587 12.0582C18.9125 12.057 18.2915 12.3084 17.8282 12.7588L17.5806 13.002L17.3342 12.7588C16.8726 12.307 16.2528 12.0534 15.6069 12.0521C14.961 12.0509 14.3402 12.3021 13.877 12.7522C13.6499 12.9724 13.4692 13.236 13.3456 13.5272C13.222 13.8184 13.158 14.1315 13.1574 14.4478C13.1568 14.7642 13.2195 15.0775 13.342 15.3692C13.4644 15.6609 13.6441 15.9251 13.8704 16.1463L17.5784 19.789Z" stroke="#242424" stroke-width="1.5" stroke-linecap="round" stroke-linejoin="round"/>
</svg>
