<svg width="9" height="9" viewBox="0 0 9 9" fill="none" xmlns="http://www.w3.org/2000/svg">
<g clip-path="url(#clip0_30_7696)">
<path d="M8.1 4.5C8.1 3.54522 7.72088 2.62938 7.04575 1.95425C6.37062 1.27912 5.45478 0.9 4.5 0.9C3.54522 0.9 2.62938 1.27912 1.95425 1.95425C1.27912 2.62938 0.9 3.54522 0.9 4.5C0.9 4.97276 0.993302 5.44091 1.17422 5.87769C1.35513 6.31442 1.61998 6.71148 1.95425 7.04575C2.28852 7.38002 2.68558 7.64487 3.12231 7.82578C3.55909 8.0067 4.02724 8.1 4.5 8.1L4.6771 8.0956C5.08936 8.0753 5.49554 7.98407 5.87769 7.82578C6.31442 7.64487 6.71148 7.38002 7.04575 7.04575C7.38002 6.71148 7.64487 6.31442 7.82578 5.87769C8.0067 5.44091 8.1 4.97276 8.1 4.5ZM9 4.5C9 5.09095 8.88381 5.67625 8.65767 6.22222C8.43152 6.76816 8.09993 7.26423 7.68208 7.68208C7.26423 8.09993 6.76816 8.43152 6.22222 8.65767C5.74456 8.85552 5.23677 8.96934 4.72148 8.99473L4.5 9C3.90905 9 3.32375 8.88381 2.77778 8.65767C2.23184 8.43152 1.73577 8.09993 1.31792 7.68208C0.900068 7.26423 0.56848 6.76816 0.342334 6.22222C0.116188 5.67625 -7.92532e-09 5.09095 0 4.5C1.77842e-08 3.30653 0.474006 2.16183 1.31792 1.31792C2.16183 0.474006 3.30653 0 4.5 0C5.69347 0 6.83817 0.474006 7.68208 1.31792C8.52599 2.16183 9 3.30653 9 4.5Z" fill="#808080"/>
<path d="M3.59961 2.24981C3.59961 2.00128 3.84138 1.7998 4.13962 1.7998C4.43786 1.7998 4.67963 2.00128 4.67963 2.24981V4.3135L6.14144 5.53167C6.35233 5.70741 6.35233 5.99226 6.14144 6.168C5.93056 6.34374 5.58873 6.34374 5.37784 6.168L3.75781 4.81799C3.65654 4.7336 3.59961 4.61917 3.59961 4.49983V2.24981Z" fill="#808080"/>
</g>
<defs>
<clipPath id="clip0_30_7696">
<rect width="9" height="9" fill="white"/>
</clipPath>
</defs>
</svg>
